<svg xmlns="http://www.w3.org/2000/svg" viewBox="0 0 600 400">
  <!-- Background -->
  <rect width="600" height="400" fill="#f8f9fa" />
  
  <!-- Title -->
  <text x="300" y="40" font-family="Arial" font-size="20" text-anchor="middle" font-weight="bold">HTTP Parser Benchmark Comparison</text>
  
  <!-- Grid lines -->
  <line x1="100" y1="320" x2="500" y2="320" stroke="#ddd" stroke-width="1" />
  <line x1="100" y1="270" x2="500" y2="270" stroke="#ddd" stroke-width="1" />
  <line x1="100" y1="220" x2="500" y2="220" stroke="#ddd" stroke-width="1" />
  <line x1="100" y1="170" x2="500" y2="170" stroke="#ddd" stroke-width="1" />
  <line x1="100" y1="120" x2="500" y2="120" stroke="#ddd" stroke-width="1" />
  <line x1="100" y1="70" x2="500" y2="70" stroke="#ddd" stroke-width="1" />
  
  <!-- Y-axis -->
  <line x1="100" y1="320" x2="100" y2="70" stroke="#333" stroke-width="2" />
  
  <!-- Y-axis ticks and labels -->
  <line x1="97" y1="320" x2="103" y2="320" stroke="#333" stroke-width="2" />
  <text x="90" y="325" font-family="Arial" font-size="12" text-anchor="end">1.20</text>
  
  <line x1="97" y1="270" x2="103" y2="270" stroke="#333" stroke-width="2" />
  <text x="90" y="275" font-family="Arial" font-size="12" text-anchor="end">1.25</text>
  
  <line x1="97" y1="220" x2="103" y2="220" stroke="#333" stroke-width="2" />
  <text x="90" y="225" font-family="Arial" font-size="12" text-anchor="end">1.30</text>
  
  <line x1="97" y1="170" x2="103" y2="170" stroke="#333" stroke-width="2" />
  <text x="90" y="175" font-family="Arial" font-size="12" text-anchor="end">1.35</text>
  
  <line x1="97" y1="120" x2="103" y2="120" stroke="#333" stroke-width="2" />
  <text x="90" y="125" font-family="Arial" font-size="12" text-anchor="end">1.40</text>
  
  <line x1="97" y1="70" x2="103" y2="70" stroke="#333" stroke-width="2" />
  <text x="90" y="75" font-family="Arial" font-size="12" text-anchor="end">1.45</text>
  
  <!-- X-axis -->
  <line x1="100" y1="320" x2="500" y2="320" stroke="#333" stroke-width="2" />
  
  <!-- Y-axis label -->
  <text x="50" y="195" font-family="Arial" font-size="14" text-anchor="middle" transform="rotate(-90, 50, 195)">Execution Time (seconds)</text>
  
  <!-- Data bars (scale: 1 pixel = 0.002 seconds, baseline at 1.20) -->
  <!-- hparse: 1.255 seconds = (1.255 - 1.20) / 0.001 = 55 pixels from top -->
  <rect x="150" y="265" width="80" height="55" fill="#FBBC05" />
  <text x="190" y="252" font-family="Arial" font-size="14" text-anchor="middle" font-weight="bold">1.255</text>
  
  <!-- httparse: 1.326 seconds = (1.326 - 1.20) / 0.001 = 126 pixels from top -->
  <rect x="260" y="194" width="80" height="126" fill="#EA4335" />
  <text x="300" y="181" font-family="Arial" font-size="14" text-anchor="middle" font-weight="bold">1.326</text>
  
  <!-- picohttpparser: 1.434 seconds = (1.434 - 1.20) / 0.001 = 234 pixels from top -->
  <rect x="370" y="86" width="80" height="234" fill="#4285F4" />
  <text x="410" y="73" font-family="Arial" font-size="14" text-anchor="middle" font-weight="bold">1.434</text>
  
  <!-- X-axis labels -->
  <text x="190" y="345" font-family="Arial" font-size="14" text-anchor="middle">hparse</text>
  <text x="300" y="345" font-family="Arial" font-size="14" text-anchor="middle">httparse</text>
  <text x="410" y="345" font-family="Arial" font-size="14" text-anchor="middle">picohttpparser</text>
  
  <!-- Footer -->
  <text x="300" y="380" font-family="Arial" font-size="12" text-anchor="middle" fill="#666">Lower values are better (faster execution time)</text>
</svg>
